<svg width="130" height="26" viewBox="0 0 130 26" fill="none" xmlns="http://www.w3.org/2000/svg">
<path d="M104.575 8.50727C103.943 7.04954 103.08 5.79235 101.994 4.7434C100.907 3.69445 99.6669 2.8846 98.2724 2.32157C96.8779 1.75853 95.3909 1.47315 93.8268 1.47315C91.8853 1.47315 90.1672 1.82023 88.6647 2.5221C87.1623 3.22397 85.9142 4.16494 84.9049 5.345C83.9033 6.52507 83.1405 7.87481 82.6166 9.37882C82.1004 10.8828 81.8385 12.4562 81.8385 14.0991C81.8385 15.8807 82.1543 17.5082 82.7938 18.9659C83.4256 20.4236 84.2885 21.6808 85.3749 22.7298C86.4612 23.7787 87.7017 24.5886 89.0962 25.1516C90.4907 25.7146 91.9623 26 93.5109 26C95.4756 26 97.2015 25.6529 98.7039 24.9511C100.206 24.2492 101.454 23.3082 102.464 22.1282C103.465 20.9481 104.228 19.5983 104.752 18.0789C105.268 16.5595 105.53 14.9938 105.53 13.3741C105.53 11.5924 105.214 9.965 104.575 8.50727ZM100.214 19.9917C99.6978 21.38 98.9273 22.4675 97.9026 23.2465C96.8779 24.0255 95.5912 24.4189 94.0503 24.4189C92.7482 24.4189 91.6233 24.0872 90.6602 23.4316C89.7049 22.7683 88.9036 21.8736 88.2641 20.7321C87.6246 19.5906 87.1546 18.3026 86.8465 16.868C86.5383 15.4334 86.3842 13.8985 86.3842 12.2634C86.3842 10.4432 86.6461 8.84663 87.1623 7.48146C87.6786 6.11629 88.449 5.05191 89.4737 4.28063C90.4985 3.51706 91.762 3.13142 93.2567 3.13142C94.5588 3.13142 95.6914 3.44764 96.6621 4.08781C97.6329 4.72026 98.4342 5.60724 99.0737 6.74874C99.7132 7.89024 100.191 9.17829 100.514 10.6129C100.83 12.0475 100.992 13.5746 100.992 15.1789C100.992 16.9991 100.73 18.6111 100.214 19.9994V19.9917Z" fill="#152317"/>
<path d="M114.899 24.3032C114.899 24.3032 114.906 24.3032 114.914 24.3032C114.906 24.3032 114.899 24.3032 114.891 24.3032C114.891 24.3032 114.891 24.3032 114.899 24.3032Z" fill="#152317"/>
<path d="M28.7613 25.8457C27.3899 25.8457 26.1803 25.4832 25.1325 24.7505C24.0846 24.0178 23.2525 22.9997 22.6439 21.6885C22.0352 20.3773 21.7347 18.8579 21.7347 17.1302C21.7347 15.5645 22.0814 14.1299 22.7826 12.8342C23.476 11.5384 24.4082 10.4972 25.5716 9.71047C26.735 8.93147 28.014 8.53812 29.4085 8.53812C30.4486 8.53812 31.3809 8.75408 32.1976 9.19371C33.022 9.63334 33.6692 10.2427 34.1315 11.0217C34.6014 11.8007 34.8326 12.7031 34.8326 13.7057C34.8326 14.5773 34.4396 15.0169 33.6538 15.0169H25.7874C25.4329 15.0169 25.1787 15.1249 25.0246 15.3331C24.8705 15.5414 24.7935 15.927 24.7935 16.4901C24.7935 17.6547 25.0477 18.7268 25.5562 19.6909C26.0647 20.6627 26.735 21.434 27.5671 22.0202C28.3992 22.6063 29.3238 22.8994 30.3408 22.8994C31.1035 22.8994 31.7893 22.7452 32.4133 22.4444C33.0374 22.1436 33.6075 21.7117 34.1392 21.1486C34.2162 21.0406 34.2855 20.9635 34.3472 20.9095C34.4088 20.8555 34.4782 20.8324 34.5552 20.8324C34.7864 20.8324 34.8942 20.9789 34.8942 21.272C34.8942 21.6962 34.717 22.1976 34.3626 22.7837C34.0082 23.3391 33.5613 23.8481 33.0143 24.3186C32.4673 24.7814 31.8355 25.1516 31.1112 25.4293C30.387 25.7069 29.6011 25.8457 28.7382 25.8457H28.7613ZM25.8336 13.6672H28.8692C29.5241 13.6672 30.048 13.6517 30.4255 13.6286C30.8031 13.6055 31.1575 13.5515 31.4888 13.4666C31.612 13.4126 31.7045 13.3047 31.7584 13.1273C31.8124 12.9576 31.8355 12.7339 31.8355 12.4717C31.8355 11.7312 31.5427 11.0988 30.9649 10.582C30.3793 10.0653 29.6859 9.80303 28.8769 9.80303C28.3222 9.80303 27.7674 9.97271 27.2281 10.3198C26.6811 10.6669 26.2342 11.0988 25.8798 11.6155C25.5254 12.1323 25.3636 12.6568 25.3867 13.189C25.3867 13.5052 25.5408 13.6672 25.8413 13.6672H25.8336Z" fill="#152317"/>
<path d="M58.8633 25.8457C57.4919 25.8457 56.2822 25.4832 55.2344 24.7505C54.1866 24.0178 53.3545 22.9997 52.7458 21.6885C52.1371 20.3773 51.8367 18.8579 51.8367 17.1302C51.8367 15.5645 52.1834 14.1299 52.8845 12.8342C53.5779 11.5384 54.5102 10.4972 55.6736 9.71047C56.837 8.93147 58.1159 8.53812 59.5105 8.53812C60.5506 8.53812 61.4829 8.75408 62.2995 9.19371C63.1239 9.63334 63.7711 10.2427 64.2334 11.0217C64.7034 11.8007 64.9345 12.7031 64.9345 13.7057C64.9345 14.5773 64.5416 15.0169 63.7557 15.0169H55.8893C55.5349 15.0169 55.2806 15.1249 55.1265 15.3331C54.9725 15.5414 54.8954 15.927 54.8954 16.4901C54.8954 17.6547 55.1497 18.7268 55.6582 19.6909C56.1667 20.6627 56.837 21.434 57.6691 22.0202C58.5012 22.6063 59.4257 22.8994 60.4427 22.8994C61.2055 22.8994 61.8912 22.7452 62.5153 22.4444C63.1393 22.1436 63.7095 21.7117 64.2411 21.1486C64.3181 21.0406 64.3875 20.9635 64.4491 20.9095C64.5108 20.8555 64.5801 20.8324 64.6572 20.8324C64.8883 20.8324 64.9962 20.9789 64.9962 21.272C64.9962 21.6962 64.819 22.1976 64.4645 22.7837C64.1101 23.3391 63.6633 23.8481 63.1162 24.3186C62.5692 24.7814 61.9374 25.1516 61.2132 25.4293C60.489 25.7069 59.7031 25.8457 58.8402 25.8457H58.8633ZM55.9355 13.6672H58.9711C59.626 13.6672 60.15 13.6517 60.5275 13.6286C60.905 13.6055 61.2594 13.5515 61.5907 13.4666C61.714 13.4126 61.8064 13.3047 61.8604 13.1273C61.9143 12.9576 61.9374 12.7339 61.9374 12.4717C61.9374 11.7312 61.6446 11.0988 61.0668 10.582C60.4813 10.0653 59.7878 9.80303 58.9789 9.80303C58.4241 9.80303 57.8694 9.97271 57.3301 10.3198C56.783 10.6669 56.3362 11.0988 55.9818 11.6155C55.6273 12.1323 55.4655 12.6568 55.4887 13.189C55.4887 13.5052 55.6427 13.6672 55.9432 13.6672H55.9355Z" fill="#152317"/>
<path d="M0.993896 25.5372C0.693416 25.5372 0.446868 25.4987 0.269662 25.4293C0.0924554 25.3598 0 25.2519 0 25.1053C0 24.7968 0.369822 24.5654 1.10176 24.4189C2.04172 24.226 2.73514 23.9561 3.18971 23.609C3.64428 23.2619 3.87542 22.6681 3.87542 21.8274V5.54554C3.87542 4.72797 3.69822 4.12637 3.3438 3.74073C2.98939 3.35509 2.3422 3.10828 1.40995 2.98487C1.03242 2.93859 0.755053 2.84604 0.577846 2.71492C0.40064 2.5838 0.315889 2.42955 0.315889 2.26758C0.315889 2.12103 0.40064 2.01305 0.577846 1.92821C0.755053 1.84337 0.993896 1.80481 1.30208 1.80481C2.03402 1.80481 2.61957 1.82023 3.05103 1.84337C3.48249 1.86651 3.89083 1.88193 4.28377 1.89736C4.6767 1.91279 5.13898 1.91279 5.6706 1.91279C6.20222 1.91279 6.66449 1.89736 7.05743 1.8588C7.45037 1.82023 7.88953 1.78938 8.39033 1.75082C8.88342 1.71225 9.52291 1.69683 10.3088 1.69683C13.2982 1.69683 15.5402 2.09789 17.0349 2.90003C18.5296 3.70217 19.277 5.09048 19.277 7.05725C19.277 7.85168 19.1152 8.56126 18.7993 9.186C18.4834 9.81074 18.1367 10.2889 17.7514 10.6283C17.3431 10.9908 16.9579 11.2762 16.5957 11.4921C16.2259 11.7081 15.7405 11.9163 15.1319 12.1015C15.0317 12.1246 14.9778 12.1786 14.9778 12.2634C14.9778 12.3483 15.0317 12.4177 15.1319 12.464C15.7405 12.6336 16.3646 12.8419 17.0118 13.0964C17.659 13.3509 18.2676 13.6826 18.8532 14.1068C19.4387 14.5233 19.901 15.0786 20.24 15.7651C20.579 16.4515 20.7562 17.323 20.7562 18.3797C20.7562 19.6986 20.5328 20.7553 20.0936 21.5343C19.6468 22.3133 19.1229 22.9071 18.5142 23.3159C17.9055 23.7247 17.3354 24.0641 16.8038 24.3263C15.9948 24.712 15.0702 25.005 14.0301 25.2056C12.99 25.4061 11.7341 25.5141 10.2703 25.5141C9.76175 25.5141 9.15308 25.491 8.42885 25.4447C7.70462 25.3984 6.92645 25.3753 6.09435 25.3753C5.48569 25.3753 4.92325 25.383 4.40704 25.4138C3.89083 25.437 3.35921 25.4678 2.82759 25.5064C2.29598 25.5449 1.68731 25.5604 1.0016 25.5604L0.993896 25.5372ZM9.54602 12.032C10.2009 12.032 10.8789 11.9626 11.58 11.8161C12.2735 11.6695 12.9669 11.3996 13.6526 10.9908C13.9068 10.8443 14.2227 10.5049 14.6003 9.965C14.9778 9.4251 15.1704 8.65381 15.1704 7.64343C15.1704 6.82587 15.0394 6.0623 14.7698 5.35271C14.5001 4.64313 14.007 4.07238 13.2905 3.62504C12.5662 3.17769 11.5338 2.96173 10.1932 2.96173C9.28406 2.96173 8.66769 3.09285 8.3518 3.35509C8.03592 3.61732 7.87412 4.01839 7.87412 4.54287V10.7054C7.87412 11.2839 8.07444 11.6464 8.48278 11.8007C8.89113 11.9549 9.24554 12.032 9.54602 12.032ZM10.6093 23.8481C11.6186 23.8481 12.5508 23.6167 13.3983 23.1617C14.2458 22.7066 14.9315 22.0742 15.4478 21.272C15.964 20.4699 16.2259 19.5752 16.2259 18.588C16.2259 17.6778 16.0795 16.922 15.7868 16.3358C15.494 15.7496 15.1627 15.2714 14.7775 14.9166C14.3999 14.5541 14.0532 14.2919 13.7527 14.1222C13.4523 13.9294 12.9823 13.7366 12.3505 13.5438C11.7187 13.3509 10.8943 13.2584 9.87732 13.2584C9.22243 13.2584 8.72163 13.3895 8.37492 13.6517C8.03592 13.914 7.85871 14.2071 7.85871 14.5156V21.3954C7.85871 22.3055 8.09755 22.9457 8.58294 23.3082C9.06063 23.6707 9.73864 23.8481 10.5938 23.8481H10.6093Z" fill="#152317"/>
<path d="M52.4684 22.7915C52.4222 22.6603 52.1834 22.5369 51.9753 22.6989C51.6749 22.884 51.1972 23.3776 50.4652 23.3776C49.6794 23.3776 49.0707 23.0768 48.6393 22.4829C48.2078 21.889 47.9921 21.0329 47.9921 19.9146V13.0733C47.9921 12.5951 48.0845 12.2943 48.2771 12.1554C48.4698 12.0243 48.8781 11.9549 49.5099 11.9549H51.9522C52.3375 11.9549 52.5994 11.4613 52.5994 10.8982C52.5994 10.3352 52.4145 9.88787 51.9753 9.88787H48.8319C48.5314 9.88787 48.2925 9.83388 48.1307 9.7259C47.969 9.61792 47.8996 9.40967 47.9227 9.08573L48.1539 6.26283C48.177 6.02373 48.1385 5.86176 48.0229 5.78463C47.9073 5.70751 47.7763 5.66123 47.6222 5.66123C47.4682 5.66123 47.3449 5.71522 47.2447 5.8232C47.1446 5.93118 45.8271 8.26046 44.3016 9.4251C42.776 10.5897 40.2258 10.5743 40.2258 9.08573L40.4569 6.26283C40.4801 6.02373 40.4415 5.86176 40.326 5.78463C40.2104 5.70751 40.0794 5.66123 39.9253 5.66123C39.7712 5.66123 39.648 5.71522 39.5478 5.8232C39.4476 5.93118 38.0454 8.33758 36.6046 9.4251C36.2965 9.65648 35.8265 10.0267 35.2255 10.3738C34.8403 10.5974 34.7093 11.1373 34.8711 11.5384C35.1716 12.2943 36.1809 11.7698 36.5738 12.0937C36.7202 12.2171 36.8204 12.3405 36.8204 12.5488V20.9018C36.8204 22.4907 37.1902 23.7016 37.9375 24.5191C38.6849 25.3367 39.7558 25.7532 41.1504 25.7532C41.9825 25.7532 42.7683 25.5758 43.508 25.2133C44.2399 24.8585 44.8409 24.4806 45.2954 24.0795C45.3032 24.0795 45.3109 24.0641 45.3186 24.0564C45.4187 24.2183 45.5189 24.3803 45.6422 24.5191C46.3895 25.3367 47.4604 25.7532 48.855 25.7532C51.2973 25.7532 52.7689 23.5704 52.4916 22.7837L52.4684 22.7915ZM42.7683 23.3776C41.9825 23.3776 41.3738 23.0768 40.9423 22.4829C40.5109 21.889 40.2952 21.0329 40.2952 19.9146V13.0733C40.2952 12.5951 40.3876 12.2943 40.5802 12.1554C40.7728 12.0243 41.1812 11.9549 41.813 11.9549H43.2845C43.7622 11.9549 44.0858 12.0012 44.2553 12.0937C44.4171 12.1863 44.5019 12.3405 44.5019 12.5488V20.9018C44.5019 21.7117 44.602 22.4135 44.7946 23.0228C44.6791 23.0691 43.8008 23.3699 42.7683 23.3699V23.3776Z" fill="#152317"/>
<path d="M65.1811 25.4447C64.9499 25.4447 64.7727 25.4061 64.634 25.3213C64.4954 25.2441 64.426 25.1207 64.426 24.9665C64.426 24.7505 64.5108 24.604 64.6726 24.5114C64.8344 24.4189 65.0424 24.334 65.2966 24.2492C65.8283 24.1181 66.1981 23.933 66.4138 23.6939C66.6295 23.4548 66.7374 23.1385 66.7374 22.7375V14.4307C66.7374 13.7674 66.645 13.2044 66.4677 12.7416C66.2905 12.2788 65.913 11.978 65.3275 11.8469C65.2273 11.8238 65.1348 11.7544 65.0424 11.6464C64.9499 11.5384 64.9114 11.4073 64.9114 11.2453C64.9114 10.9522 65.1348 10.7131 65.4199 10.6746C67.269 10.5049 69.0411 8.62296 69.5496 8.32987C69.7037 8.22189 69.8424 8.14476 69.9656 8.09077C70.0889 8.03678 70.1814 8.01364 70.2353 8.01364C70.4125 8.01364 70.505 8.12162 70.505 8.32987C70.505 8.43785 70.505 8.66152 70.4896 9.0086C70.4741 9.35568 70.4587 9.74132 70.4356 10.1655C70.4125 10.5897 70.3971 10.9985 70.3971 11.3996C70.3971 11.5076 70.4202 11.5616 70.4741 11.5616C70.8825 11.0294 71.3294 10.5435 71.8224 10.0884C72.3155 9.63334 72.8395 9.27084 73.4019 8.99318C73.9566 8.71551 74.4883 8.57668 74.9967 8.57668C75.6516 8.57668 76.1601 8.71551 76.5146 8.99318C76.869 9.27084 77.0462 9.63334 77.0462 10.0884C77.0462 10.3815 76.9614 10.7209 76.7996 11.0988C76.6378 11.4844 76.4221 11.8161 76.1525 12.0937C75.8828 12.3714 75.6054 12.5102 75.2972 12.5102C75.12 12.5102 74.9274 12.464 74.7271 12.3714C74.5268 12.2788 74.311 12.1786 74.0799 12.0706C73.8796 11.9626 73.6716 11.8624 73.4558 11.7698C73.2401 11.6772 73.0321 11.631 72.8317 11.631C72.2 11.631 71.6144 11.8701 71.0828 12.3483C70.5512 12.8265 70.2815 13.752 70.2815 15.1326V22.6141C70.2815 23.0383 70.4433 23.3699 70.7746 23.609C71.1059 23.8481 71.599 24.0718 72.2539 24.2877C72.5313 24.3649 72.747 24.4574 72.9011 24.55C73.0552 24.6425 73.1322 24.7814 73.1322 24.9665C73.1322 25.2827 72.8934 25.4447 72.408 25.4447C71.6452 25.4447 70.9981 25.4138 70.451 25.3444C69.904 25.2827 69.303 25.2441 68.6481 25.2441C68.2167 25.2441 67.8392 25.2596 67.5079 25.2827C67.1766 25.3058 66.8376 25.3444 66.4831 25.383C66.1287 25.4215 65.6973 25.4447 65.1888 25.4447H65.1811Z" fill="#152317"/>
<path d="M128.898 0.663305C128.174 0.223673 127.057 0 125.539 0C124.653 0 123.705 0.185108 122.688 0.547612C121.756 0.886977 120.878 1.43459 120.046 2.18273C119.206 1.71996 118.089 1.48087 116.671 1.48087C110.5 1.48087 107.818 6.11629 107.818 9.77989C107.441 9.95728 106.393 10.5435 106.216 10.6514C105.808 10.8905 105.854 11.3919 105.985 11.5847C106.108 11.7775 106.224 11.8932 106.593 11.9086C107.002 11.9318 107.564 11.9086 107.818 11.9086V22.6681C107.818 23.1771 107.657 23.5396 107.325 23.7556C106.994 23.9715 106.64 24.1412 106.262 24.2723C106.008 24.3495 105.8 24.4343 105.638 24.5191C105.476 24.6117 105.391 24.7505 105.391 24.9588C105.391 25.113 105.461 25.221 105.599 25.2981C105.738 25.3753 105.923 25.4138 106.147 25.4138C106.655 25.4138 107.086 25.3907 107.441 25.3598C107.795 25.3213 108.142 25.2904 108.489 25.2673C108.835 25.2441 109.213 25.2287 109.644 25.2287C110.099 25.2287 110.492 25.2441 110.823 25.2673C111.155 25.2904 111.501 25.3213 111.871 25.3598C112.241 25.3984 113.651 25.4601 114.159 25.4447C114.683 25.4293 115.924 25.3984 116.293 25.3598C116.663 25.3213 117.018 25.2904 117.357 25.2673C117.696 25.2441 118.081 25.2287 118.512 25.2287C119.167 25.2287 119.853 25.2596 120.562 25.3213C121.271 25.383 122.003 25.4138 122.765 25.4138C122.997 25.4138 123.174 25.3675 123.297 25.2827C123.42 25.1901 123.49 25.0745 123.49 24.9202C123.49 24.5886 123.212 24.3726 122.658 24.2723C121.648 24.1181 120.97 23.9175 120.647 23.663C120.315 23.4085 120.154 23.0074 120.154 22.4444V12.1632C120.154 12.0089 120.277 11.8855 120.431 11.8855H125.138C125.524 11.8855 125.847 11.3919 125.847 10.8288C125.847 10.2658 125.601 9.81845 125.154 9.81845H120.431C120.277 9.81845 120.154 9.69505 120.154 9.54079V7.15752C120.154 5.07505 120.5 4.0801 121.201 3.10056C121.895 2.12103 122.819 1.63512 123.952 1.63512C124.761 1.63512 125.423 1.80481 125.947 2.15188C126.464 2.49125 126.918 2.85375 127.296 3.23168C127.55 3.48621 127.773 3.70988 127.981 3.89499C128.182 4.08781 128.397 4.18036 128.629 4.18036C129.006 4.18036 129.33 4.03382 129.599 3.74073C129.869 3.44764 130 3.03886 130 2.50667C130 1.71996 129.638 1.10294 128.914 0.663305H128.898ZM116.686 22.6681C116.686 23.1462 116.571 23.501 116.347 23.7324C116.124 23.9561 115.693 24.1489 115.068 24.2955C115.084 24.2955 115.092 24.2955 115.053 24.2955C115.038 24.2955 115.038 24.2955 115.045 24.2955C114.467 24.3803 113.651 24.3649 113.065 24.2569C112.611 24.1566 112.202 23.9792 111.848 23.7247C111.494 23.4702 111.316 23.1077 111.316 22.6218V12.5796C111.316 12.3791 111.401 12.2094 111.563 12.0629C111.725 11.9241 112.148 11.8546 112.834 11.8546L116.686 11.8932V22.6681ZM116.686 9.81074H112.264C112.01 9.81074 111.786 9.75675 111.601 9.64106C111.409 9.52536 111.316 9.3094 111.316 8.97775V8.48413C111.316 6.10086 112.834 3.19312 115.307 3.19312C116.139 3.19312 116.817 3.35509 117.341 3.67131C117.495 3.76387 117.642 3.86414 117.773 3.9644C118.081 4.18807 118.173 4.60457 118.004 4.94393C117.865 5.2216 116.81 7.30406 116.694 9.81845L116.686 9.81074Z" fill="#152317"/>
</svg>
